name D:\school\WTK\thesis\model\3dpredictsim\Results\batch_windlass\Pog_s1_tmt_bCst_d05_k500_WL10_ig24_act_TTC.mot
datacolumns 128
datarows 4
range 0.00000000 0.03334202
endheader
time	pelvis_tilt	pelvis_list	pelvis_rotation	pelvis_tx	pelvis_ty	pelvis_tz	hip_flexion_l	hip_adduction_l	hip_rotation_l	hip_flexion_r	hip_adduction_r	hip_rotation_r	knee_angle_l	knee_angle_r	ankle_angle_l	ankle_angle_r	subtalar_angle_l	subtalar_angle_r	tmt_angle_l	tmt_angle_r	mtp_angle_l	mtp_angle_r	lumbar_extension	lumbar_bending	lumbar_rotation	arm_flex_l	arm_add_l	arm_rot_l	arm_flex_r	arm_add_r	arm_rot_r	elbow_flex_l	elbow_flex_r	pro_sup_l	pro_sup_r	glut_med1_l/activation	glut_med2_l/activation	glut_med3_l/activation	glut_min1_l/activation	glut_min2_l/activation	glut_min3_l/activation	semimem_l/activation	semiten_l/activation	bifemlh_l/activation	bifemsh_l/activation	sar_l/activation	add_long_l/activation	add_brev_l/activation	add_mag1_l/activation	add_mag2_l/activation	add_mag3_l/activation	tfl_l/activation	pect_l/activation	grac_l/activation	glut_max1_l/activation	glut_max2_l/activation	glut_max3_l/activation	iliacus_l/activation	psoas_l/activation	quad_fem_l/activation	gem_l/activation	peri_l/activation	rect_fem_l/activation	vas_med_l/activation	vas_int_l/activation	vas_lat_l/activation	med_gas_l/activation	lat_gas_l/activation	soleus_l/activation	tib_post_l/activation	flex_dig_l/activation	flex_hal_l/activation	tib_ant_l/activation	per_brev_l/activation	per_long_l/activation	per_tert_l/activation	ext_dig_l/activation	ext_hal_l/activation	ercspn_l/activation	intobl_l/activation	extobl_l/activation	glut_med1_r/activation	glut_med2_r/activation	glut_med3_r/activation	glut_min1_r/activation	glut_min2_r/activation	glut_min3_r/activation	semimem_r/activation	semiten_r/activation	bifemlh_r/activation	bifemsh_r/activation	sar_r/activation	add_long_r/activation	add_brev_r/activation	add_mag1_r/activation	add_mag2_r/activation	add_mag3_r/activation	tfl_r/activation	pect_r/activation	grac_r/activation	glut_max1_r/activation	glut_max2_r/activation	glut_max3_r/activation	iliacus_r/activation	psoas_r/activation	quad_fem_r/activation	gem_r/activation	peri_r/activation	rect_fem_r/activation	vas_med_r/activation	vas_int_r/activation	vas_lat_r/activation	med_gas_r/activation	lat_gas_r/activation	soleus_r/activation	tib_post_r/activation	flex_dig_r/activation	flex_hal_r/activation	tib_ant_r/activation	per_brev_r/activation	per_long_r/activation	per_tert_r/activation	ext_dig_r/activation	ext_hal_r/activation	ercspn_r/activation	intobl_r/activation	extobl_r/activation	
          0.00000000	         -2.92243067	         -0.68200109	          7.64061728	          0.00000000	          0.85747646	         -0.00044830	        -15.10368554	         -2.41753590	          8.38409873	         33.13396904	         -0.53648315	         -2.36192202	        -17.27079907	        -22.88851000	         -8.87825572	         -8.64819120	         18.44818570	          8.66666455	         -1.36653733	          0.01633599	         31.11824367	         -0.15531619	          1.46060249	         -2.35053827	         -2.44690304	          4.07415517	        -13.45548367	         15.55088911	        -15.92683581	        -13.64639466	          8.13625099	         36.31239154	         21.28769882	         86.51662706	         86.51662706	          0.13476342	          0.07023793	          0.06290569	          0.17988580	          0.13030565	          0.08130048	          0.05000436	          0.05000064	          0.05000084	          0.05000064	          0.08325185	          0.05127854	          0.05000097	          0.05000130	          0.05000320	          0.05000216	          0.19795060	          0.05000640	          0.05000519	          0.05030044	          0.05011920	          0.05001997	          0.32149423	          0.57632699	          0.05926232	          0.05926237	          0.05930271	          0.30742572	          0.07023913	          0.07023918	          0.07023910	          0.15630601	          0.22868237	          0.05548517	          0.15412304	          0.15912579	          0.17463903	          0.10589229	          0.48160758	          0.38495832	          0.28473957	          0.29723823	          0.05000052	          0.05000002	          0.05743680	          0.05000026	          0.05000105	          0.05000189	          0.05000150	          0.05001790	          0.05000468	          0.05000217	          0.15724662	          0.07024038	          0.19385488	          0.07027163	          0.07023203	          0.09865245	          0.09981151	          0.06411635	          0.05003968	          0.09888794	          0.05000361	          0.05022044	          0.09542876	          0.05000177	          0.05959064	          0.10208169	          0.08325753	          0.08324964	          0.12549657	          0.05933533	          0.05542904	          0.05836932	          0.05000357	          0.06460702	          0.07474263	          0.05926169	          0.05926173	          0.05926170	          0.07295518	          0.05000119	          0.05178552	          0.21193380	          0.07023925	          0.05926184	          0.17049819	          0.48366956	          0.13153613	          0.05000018	          0.13860916	          0.16503705	
          0.01111401	         -2.90868188	         -0.66381722	          7.85055575	          0.01758449	          0.85630568	         -0.00018354	        -15.23867955	         -2.62817825	          8.22240197	         32.80131842	         -0.33607418	         -2.10745962	        -18.42096604	        -23.26580471	        -11.28610778	         -8.33349029	         18.74830410	          8.18017692	         -2.02090067	         -0.04594430	         32.51493271	         -0.26326703	          1.68320799	         -2.15981720	         -2.50293294	          3.85849999	        -13.47524260	         15.92654835	        -17.06743475	        -13.60701292	          8.32397965	         36.95528989	         21.13917747	         86.51662706	         86.51662706	          0.11370231	          0.05926100	          0.05307459	          0.15177263	          0.10994110	          0.06859476	          0.05000400	          0.05000045	          0.05000043	          0.05000084	          0.07024201	          0.11624903	          0.12800340	          0.05001183	          0.05000367	          0.05000133	          0.16701428	          0.08295007	          0.05000230	          0.05000318	          0.05000213	          0.05000126	          0.27124979	          0.48687734	          0.05000074	          0.05000158	          0.05003479	          0.25937991	          0.05926193	          0.05926197	          0.05926189	          0.13187783	          0.19294291	          0.05000003	          0.13003604	          0.13425700	          0.14734574	          0.28635243	          0.45097161	          0.35044562	          0.58915113	          0.44117640	          0.25855635	          0.05000002	          0.05000005	          0.05000011	          0.14010270	          0.05000281	          0.05011698	          0.05000653	          0.05000959	          0.05001900	          0.13267149	          0.05926308	          0.16355846	          0.05928938	          0.05926108	          0.08324799	          0.09622335	          0.08756193	          0.12232668	          0.13242272	          0.05000076	          0.05017422	          0.08051586	          0.05005208	          0.11992930	          0.13976799	          0.07024602	          0.07023932	          0.10588468	          0.05006402	          0.05000220	          0.05000010	          0.09528248	          0.11024884	          0.11723032	          0.05000002	          0.05000006	          0.05000003	          0.11634913	          0.05000104	          0.05000023	          0.35688747	          0.05926198	          0.05000016	          0.38735082	          0.50957567	          0.40780238	          0.05000034	          0.11694674	          0.13924436	
          0.02222801	         -2.88873960	         -0.65253395	          8.02958535	          0.03533769	          0.85478345	          0.00007670	        -15.17642508	         -2.80626330	          8.04584293	         32.38434197	         -0.08269868	         -1.78896881	        -19.96723299	        -24.27715031	        -13.51156490	         -7.29902355	         19.00409375	          7.60066269	         -2.55783591	          0.09474072	         33.08860230	         -0.38909432	          1.91281183	         -1.94408113	         -2.54689165	          3.59248480	        -13.51079980	         16.25914218	        -18.17143179	        -13.58135884	          8.59341802	         37.57050486	         20.93822479	         86.51662706	         86.51662706	          0.09593250	          0.05000071	          0.05000070	          0.12805307	          0.09275919	          0.05787490	          0.05926710	          0.07024072	          0.09843402	          0.05926169	          0.05926505	          0.20605693	          0.17322027	          0.38762735	          0.18715610	          0.16340944	          0.14091272	          0.06998809	          0.07025381	          0.05000721	          0.05000369	          0.05000254	          0.22885774	          0.41078618	          0.06874613	          0.05939309	          0.05926239	          0.21884291	          0.05000029	          0.05000033	          0.05000025	          0.11126740	          0.16278897	          0.05000001	          0.10971347	          0.11327486	          0.12431799	          0.43519260	          0.38049234	          0.29567680	          0.72538689	          0.50261264	          0.32421406	          0.06446584	          0.05926195	          0.05879254	          0.17257332	          0.10887985	          0.18453355	          0.05000159	          0.05000118	          0.05000154	          0.11193703	          0.05000129	          0.13799685	          0.05002343	          0.05000051	          0.07023908	          0.08120487	          0.18691390	          0.17940475	          0.14525091	          0.05926068	          0.05652923	          0.06793318	          0.12874203	          0.16936097	          0.16825915	          0.05926786	          0.05926232	          0.11975299	          0.05000084	          0.06078258	          0.05926255	          0.26452149	          0.26061264	          0.24597274	          0.05000005	          0.05000013	          0.05000000	          0.18460084	          0.05007199	          0.08683317	          0.30111156	          0.05000034	          0.05000102	          0.32681404	          0.42993699	          0.34406932	          0.05000007	          0.09866981	          0.11748265	
          0.03334202	         -2.86642214	         -0.64837519	          8.17060317	          0.05300893	          0.85306631	          0.00032430	        -14.86846772	         -2.94355710	          7.87423327	         31.77133007	          0.22392644	         -1.42692642	        -21.96674834	        -25.62647319	        -15.39178702	         -5.18997526	         19.20215673	          7.05912627	         -2.83709063	          0.55372617	         32.20473368	         -0.44073491	          2.12970669	         -1.70510947	         -2.57502956	          3.31303009	        -13.55126082	         16.55331042	        -19.18051807	        -13.57156694	          8.97836353	         38.13445955	         20.65140462	         86.51662706	         86.51662706	          0.08094013	          0.05006055	          0.05174832	          0.10804050	          0.07826259	          0.05000523	          0.05002481	          0.05926340	          0.08305069	          0.05000029	          0.05000333	          0.17385365	          0.33588347	          0.32704753	          0.15790797	          0.13787183	          0.15557890	          0.05905162	          0.05927471	          0.05921333	          0.08626236	          0.11696107	          0.19309090	          0.39458793	          0.07710316	          0.05011329	          0.05000093	          0.18464122	          0.09867101	          0.07780223	          0.06931280	          0.09387806	          0.13734763	          0.05000009	          0.09256702	          0.09557198	          0.10488915	          0.36717890	          0.32102747	          0.24946722	          0.61202037	          0.65299135	          0.27354479	          0.10673218	          0.05000032	          0.05019444	          0.22131168	          0.33662212	          0.53159190	          0.05926199	          0.05565994	          0.33335387	          0.09444305	          0.05848957	          0.11643013	          0.05926207	          0.05925662	          0.05926198	          0.06851398	          0.15770248	          0.15136725	          0.15460093	          0.05000037	          0.05025253	          0.05926316	          0.28147532	          0.25440698	          0.20100414	          0.05000550	          0.05000075	          0.27381213	          0.13875424	          0.23192625	          0.05000078	          0.22318107	          0.21988326	          0.25511673	          0.05926951	          0.05937777	          0.08194130	          0.20328002	          0.08172097	          0.07326331	          0.25405255	          0.05557200	          0.05000049	          0.27573822	          0.36274459	          0.29029686	          0.05000008	          0.08324928	          0.09912196	
